<svg width="516" height="387" viewBox="0 0 516 387" fill="none" xmlns="http://www.w3.org/2000/svg">
<rect width="516" height="387" rx="20" fill="#D9D9D9"/>
<circle cx="257.5" cy="193.5" r="93.5" fill="white"/>
<path d="M273.909 179.44C275.067 177.456 277.933 177.456 279.091 179.44L314.137 239.488C315.304 241.488 313.861 244 311.546 244H241.454C239.139 244 237.696 241.488 238.863 239.488L273.909 179.44Z" fill="#D9D9D9"/>
<path d="M233.41 186.433C234.568 184.451 237.432 184.451 238.59 186.433L269.736 239.737C270.904 241.736 269.462 244.25 267.146 244.25H204.854C202.538 244.25 201.096 241.736 202.264 239.737L233.41 186.433Z" fill="#D9D9D9"/>
<circle cx="206.5" cy="154.5" r="15.5" fill="#D9D9D9"/>
</svg>
