<svg width="73" height="73" viewBox="0 0 73 73" fill="none" xmlns="http://www.w3.org/2000/svg">
<path fill-rule="evenodd" clip-rule="evenodd" d="M73 36.5C73 56.6585 56.6585 73 36.5 73C16.3416 73 0 56.6585 0 36.5C0 16.3416 16.3416 0 36.5 0C56.6585 0 73 16.3416 73 36.5ZM26.7668 30.2816C30.201 30.2816 32.9852 27.4974 32.9852 24.0629C32.9852 20.6287 30.201 17.8445 26.7668 17.8445C23.3323 17.8445 20.5481 20.6287 20.5481 24.0629C20.5481 27.4974 23.3323 30.2816 26.7668 30.2816ZM46.2332 30.2816C49.6677 30.2816 52.4519 27.4974 52.4519 24.0629C52.4519 20.6287 49.6677 17.8445 46.2332 17.8445C42.799 17.8445 40.0148 20.6287 40.0148 24.0629C40.0148 27.4974 42.799 30.2816 46.2332 30.2816ZM36.7703 49.2074C28.4085 49.2074 21.6297 42.4286 21.6297 34.0668H15.1407C15.1407 46.0123 24.8248 55.6964 36.7703 55.6964C48.7162 55.6964 58.4 46.0123 58.4 34.0668H51.911C51.911 42.4286 45.1325 49.2074 36.7703 49.2074Z" fill="#F6C37B"/>
</svg>
